<svg xmlns="http://www.w3.org/2000/svg" width="20.2" height="12" viewBox="0 0 20.2 12">
  <path id="Icon_awesome-vk" data-name="Icon awesome-vk" d="M21.048,7.564c.139-.469,0-.814-.668-.814H18.172a.948.948,0,0,0-.96.626A18.507,18.507,0,0,1,14.5,11.9c-.514.514-.75.679-1.031.679-.139,0-.353-.165-.353-.634V7.564c0-.563-.157-.814-.622-.814H9.018a.533.533,0,0,0-.562.506c0,.532.8.656.877,2.156v3.255c0,.713-.128.844-.409.844-.75,0-2.572-2.753-3.652-5.9-.218-.611-.431-.859-1-.859H2.065c-.63,0-.758.3-.758.626,0,.585.75,3.491,3.491,7.331a8.61,8.61,0,0,0,6.739,4.042c1.406,0,1.579-.315,1.579-.859,0-2.5-.128-2.741.578-2.741.326,0,.889.165,2.2,1.429,1.5,1.5,1.748,2.171,2.588,2.171h2.209c.63,0,.949-.315.765-.937-.42-1.309-3.259-4-3.386-4.181-.326-.42-.233-.608,0-.983,0,0,2.7-3.8,2.978-5.085Z" transform="translate(-1.308 -6.75)" fill="#fff"/>
</svg>
