<svg xmlns="http://www.w3.org/2000/svg" xmlns:xlink="http://www.w3.org/1999/xlink" width="148" height="168" viewBox="0 0 148 168"><defs><filter id="a" x="0" y="0" width="148" height="168" filterUnits="userSpaceOnUse"><feOffset dy="3" input="SourceAlpha"/><feGaussianBlur stdDeviation="3" result="b"/><feFlood flood-opacity="0.161"/><feComposite operator="in" in2="b"/><feComposite in="SourceGraphic"/></filter></defs><g transform="translate(-57 -788)"><g transform="matrix(1, 0, 0, 1, 57, 788)" filter="url(#a)"><rect width="130" height="150" transform="translate(9 6)" fill="#fff"/></g><path d="M657.273,1267a8.359,8.359,0,0,1-8.555,8.47c-11.722-.312-21.9,13.188-21.9,34.806a3.509,3.509,0,0,1-3.623,3.591,3.448,3.448,0,0,1-3.454-2.765l-4.938-20.919a6.087,6.087,0,1,1,12.009-1.4v1.971c0-9.681,8.288-31.889,21.494-31.889,5.317,0,8.866,3.195,8.949,8.131" transform="translate(-505.641 -426.871)" fill="#faaf40"/></g></svg>