<svg xmlns="http://www.w3.org/2000/svg" xmlns:xlink="http://www.w3.org/1999/xlink" width="50" height="49.539" viewBox="0 0 50 49.539"><defs><filter id="a" x="0" y="0" width="50" height="49.539" filterUnits="userSpaceOnUse"><feOffset dy="4" input="SourceAlpha"/><feGaussianBlur stdDeviation="5" result="b"/><feFlood flood-opacity="0.161"/><feComposite operator="in" in2="b"/><feComposite in="SourceGraphic"/></filter></defs><g transform="translate(-10147 17581)"><g transform="matrix(1, 0, 0, 1, 10147, -17581)" filter="url(#a)"><path d="M16.529,3.937h-.043a4.923,4.923,0,0,0-4.111,2.25,4.923,4.923,0,0,0-4.111-2.25H8.221A4.892,4.892,0,0,0,3.375,8.827a10.533,10.533,0,0,0,2.068,5.742,36.245,36.245,0,0,0,6.932,6.676,36.245,36.245,0,0,0,6.932-6.676,10.533,10.533,0,0,0,2.068-5.742A4.892,4.892,0,0,0,16.529,3.937Z" transform="translate(12.63 8.06)" fill="none" stroke="#111" stroke-width="2"/></g><rect width="18" height="18" transform="translate(10163 -17569)" fill="none"/></g></svg>