<svg xmlns="http://www.w3.org/2000/svg" width="26" height="25.309" viewBox="0 0 26 25.309">
  <path id="Icon_ionic-ios-heart" data-name="Icon ionic-ios-heart" d="M20.913,3.938h-.058a6.564,6.564,0,0,0-5.481,3,6.564,6.564,0,0,0-5.481-3H9.837a6.523,6.523,0,0,0-6.462,6.519,14.043,14.043,0,0,0,2.758,7.656,48.327,48.327,0,0,0,9.242,8.9,48.327,48.327,0,0,0,9.242-8.9,14.043,14.043,0,0,0,2.758-7.656A6.523,6.523,0,0,0,20.913,3.938Z" transform="translate(-2.375 -2.938)" fill="none" stroke="#2576ec" stroke-width="2"/>
</svg>
