<svg xmlns="http://www.w3.org/2000/svg" xmlns:xlink="http://www.w3.org/1999/xlink" width="55" height="54.193" viewBox="0 0 55 54.193"><defs><filter id="a" x="0" y="0" width="55" height="54.193" filterUnits="userSpaceOnUse"><feOffset dy="4" input="SourceAlpha"/><feGaussianBlur stdDeviation="5" result="b"/><feFlood flood-opacity="0.161"/><feComposite operator="in" in2="b"/><feComposite in="SourceGraphic"/></filter></defs><g transform="matrix(1, 0, 0, 1, 0, 0)" filter="url(#a)"><path d="M20.913,3.938h-.058a6.564,6.564,0,0,0-5.481,3,6.564,6.564,0,0,0-5.481-3H9.837a6.523,6.523,0,0,0-6.462,6.519,14.043,14.043,0,0,0,2.758,7.656,48.327,48.327,0,0,0,9.242,8.9,48.327,48.327,0,0,0,9.242-8.9,14.043,14.043,0,0,0,2.758-7.656A6.523,6.523,0,0,0,20.913,3.938Z" transform="translate(12.13 7.56)" fill="rgba(255,255,255,0.7)" stroke="#fff" stroke-width="1"/></g></svg>