<svg xmlns="http://www.w3.org/2000/svg" width="12.026" height="20" viewBox="0 0 12.026 20"><path d="M10.932,13.043a8.606,8.606,0,0,1-3.515,1.05l.816.8,2.98,2.98c1.09,1.117-.683,2.862-1.785,1.785-.746-.758-1.839-1.851-2.98-2.991L3.47,19.658C2.368,20.732.6,18.971,1.7,17.873c.758-.758,1.839-1.851,2.98-2.98l.8-.8a8.566,8.566,0,0,1-3.538-1.05C.67,12.219.111,11.739.6,10.735c.289-.57,1.082-1.05,2.132-.223a6.334,6.334,0,0,0,3.706,1.129,6.334,6.334,0,0,0,3.706-1.129c1.05-.824,1.839-.348,2.132.223.484,1-.074,1.484-1.347,2.308ZM1.373,5.065a5.065,5.065,0,1,1,5.065,5.053A5.069,5.069,0,0,1,1.373,5.065Zm2.577,0a2.488,2.488,0,1,0,2.488-2.5A2.492,2.492,0,0,0,3.95,5.065Z" transform="translate(-0.426)" fill="#fff"/></svg>