<svg xmlns="http://www.w3.org/2000/svg" width="140.006" height="50" viewBox="0 0 140.006 50"><g transform="translate(0 -154.36)"><path d="M536.81,1454.056c-.319,5.273-2.875,8.147-8.2,8.147-3.426-.052-6.738-1.79-6.738-7.815v-8.69a5.881,5.881,0,0,1-2.7.643c-1.313,0-2.625.993-3.592,2.9v5.8c0,9.447,6.034,12.107,11.35,12.107a12.314,12.314,0,0,0,7.053-2.008,1.794,1.794,0,0,1,2.827,1.466h6.415V1439.45H536.81Z" transform="translate(-505.153 -1273.617)" fill="#2576ec"/><path d="M612.824,1439.45h-8.581l-11.884,11.565V1439.45H585.94V1466.6h6.419v-2.271a12.5,12.5,0,0,1,1-4.909,12.367,12.367,0,0,1,2.849-4.117l9.014,11.3h7.662L600.5,1451.238Z" transform="translate(-544.726 -1273.617)" fill="#2576ec"/><path d="M692.155,1438.2a12.31,12.31,0,0,0-7.062,2.013,1.75,1.75,0,0,1-1.024.328,1.794,1.794,0,0,1-1.8-1.8h-6.41V1465.9h6.41v-14.61c.262-5.163,2.927-8.143,8.2-8.143,3.422.052,6.734,1.842,6.734,7.815V1465.9h6.288v-15.59c0-9.451-5.973-12.112-11.346-12.112" transform="translate(-595.301 -1272.914)" fill="#2576ec"/><path d="M767.239,1438.742a1.75,1.75,0,0,1-2.761,1.444,12.263,12.263,0,0,0-7.123-1.987c-8.1,0-13.354,5.6-13.354,14.125s5,14.173,13.306,14.173c4.152,0,7.036-1.431,8.716-3.242a.7.7,0,0,1,1.221.477c0,3.772-1.426,6.008-3.347,7.307a11.409,11.409,0,0,1-6.331,1.641h-.337l2.849,2.3c.844.67,1.685,1.352,2.844,2.293,5.938-1.374,10.712-5.583,10.712-14.2v-24.328Zm0,15.153c-.319,5.251-3.745,7.662-8.366,7.662-5.43,0-8.751-3.369-8.751-9.232s3.26-9.189,8.686-9.189c4.726,0,8.152,2.442,8.419,7.71Z" transform="translate(-633.625 -1272.914)" fill="#2576ec"/><path d="M505.769,1441.137a3.129,3.129,0,0,0,2.7-1.505,3.163,3.163,0,0,0,.464-1.672,2.881,2.881,0,0,0-3.168-2.94c-4.673,0-7.609,7.876-7.609,11.285v-9.324h-6.41v27.155h6.41V1453.2c0-5.189,1.654-8.944,4.017-10.795a5.792,5.792,0,0,1,3.592-1.286" transform="translate(-491.75 -1271.126)" fill="#2576ec"/><path d="M660.357,1413.458v7.614h-.022a4.56,4.56,0,0,0-9.075,0h0v-7.614a3.47,3.47,0,0,0,4.463-.149l.1-.079.1.079a3.413,3.413,0,0,0,2.319.875,3.466,3.466,0,0,0,2.144-.748" transform="translate(-581.465 -1258.87)" fill="#faaf40"/><path d="M660.7,1439.57v27.1h-6.4l-.057-27.094a4.559,4.559,0,0,0,6.45,0" transform="translate(-583.146 -1273.685)" fill="#2576ec"/></g></svg>